<svg width="20" height="25" viewBox="0 0 20 25" fill="none" xmlns="http://www.w3.org/2000/svg">
<path d="M0.270326 21.0844C-0.383366 22.4441 0.189259 24.0774 1.54917 24.7295C2.90927 25.3836 4.54153 24.8107 5.19522 23.451C5.84891 22.0913 5.15141 17.2352 5.15141 17.2352C5.15141 17.2352 0.924216 19.7247 0.270326 21.0844Z" fill="#C3B3E6"/>
<path d="M7.55957 21.0844C6.90608 22.4441 7.47851 24.0774 8.83862 24.7295C10.1983 25.3836 11.8308 24.8107 12.4845 23.451C13.1382 22.0913 12.4407 17.2352 12.4407 17.2352C12.4407 17.2352 8.21326 19.7247 7.55957 21.0844Z" fill="#C3B3E6"/>
<path d="M10.67 14.6483C11.3237 13.2886 10.6262 8.43248 10.6262 8.43248C10.6262 8.43248 6.39899 10.922 5.7451 12.2817C5.09141 13.6414 5.66404 15.2746 7.02394 15.9267C8.38405 16.5808 10.0163 16.008 10.67 14.6483Z" fill="#C3B3E6"/>
<path d="M14.9582 15.9267C16.3181 16.5808 17.9504 16.008 18.604 14.6483C19.2577 13.2886 18.5602 8.43248 18.5602 8.43248C18.5602 8.43248 14.333 10.922 13.6792 12.2817C13.0257 13.6414 13.5981 15.2746 14.9582 15.9267Z" fill="#C3B3E6"/>
<path d="M17.3799 6.5486C18.0338 5.18869 17.3365 0.333173 17.3365 0.333173C17.3365 0.333173 13.1089 2.82148 12.4554 4.18139C11.8017 5.5413 12.374 7.17375 13.7341 7.82744C15.094 8.48014 16.7262 7.90871 17.3799 6.5486Z" fill="#C3B3E6"/>
<path d="M19.2311 17.2352C19.2311 17.2352 15.0038 19.7247 14.3501 21.0844C13.6964 22.4441 14.269 24.0774 15.6287 24.7295C16.9888 25.3836 18.6211 24.8107 19.275 23.451C19.9286 22.0913 19.2311 17.2352 19.2311 17.2352Z" fill="#C3B3E6"/>
</svg>
