<svg width="26" height="24" viewBox="0 0 26 24" fill="none" xmlns="http://www.w3.org/2000/svg">
<path d="M22.8454 9.48692C22.8325 9.48692 22.8207 9.49045 22.8079 9.49061C23.0448 8.94268 23.1775 8.33915 23.1775 7.70428C23.1775 5.21472 21.1592 3.19643 18.6697 3.19643C17.7898 3.19643 16.9715 3.45251 16.2776 3.88845C15.3391 1.60734 13.097 -3.66249e-05 10.4773 -3.66249e-05C7.01327 -3.66249e-05 4.20528 2.80796 4.20528 6.27202C4.20528 6.53377 4.22648 6.7903 4.25766 7.0436C4.23999 7.04345 4.22294 7.04099 4.20528 7.04099C1.88285 7.04099 -3.05176e-05 8.92379 -3.05176e-05 11.2464C-3.05176e-05 13.5688 1.88285 15.4516 4.20528 15.4516H22.8454C24.4926 15.4516 25.8277 14.1164 25.8277 12.4693C25.8277 10.8221 24.4926 9.48692 22.8454 9.48692Z" fill="#C3B3E6"/>
<path d="M8.26469 22.7994C7.75809 23.8533 6.49295 24.2971 5.43903 23.7905C4.38511 23.2839 3.94134 22.0188 4.44794 20.9649C4.9547 19.9109 8.23074 17.9825 8.23074 17.9825C8.23074 17.9825 8.7713 21.7455 8.26469 22.7994Z" fill="#C2B1E6"/>
<path d="M13.5297 22.7994C13.0233 23.8533 11.7581 24.2971 10.7042 23.7905C9.65015 23.2839 9.20652 22.0188 9.71313 20.9649C10.2199 19.9109 13.4959 17.9825 13.4959 17.9825C13.4959 17.9825 14.0365 21.7455 13.5297 22.7994Z" fill="#C2B1E6"/>
<path d="M18.8693 22.7994C18.3627 23.8533 17.0975 24.2971 16.0436 23.7905C14.9897 23.2839 14.5461 22.0188 15.0525 20.9649C15.5593 19.9109 18.8353 17.9825 18.8353 17.9825C18.8353 17.9825 19.3759 21.7455 18.8693 22.7994Z" fill="#C2B1E6"/>
</svg>
